<svg width="1622" height="4434" viewBox="0 0 1622 4434" fill="none" xmlns="http://www.w3.org/2000/svg">
<path d="M1621.82 461.053L1471.68 440.729C1452.8 437.058 1447.21 437.014 1446.77 437.451L1405.47 438.762C1383.96 438.762 1379.9 432.206 1380.55 428.928C1380.55 419.487 1384.49 412.756 1386.45 410.571L1393.01 402.048C1396.16 397.852 1398.69 399.425 1399.57 400.736L1423.17 415.16C1428.41 418.832 1426.23 424.557 1424.48 426.961C1418.18 437.976 1443.27 442.915 1456.6 444.007L1520.2 451.875C1535.41 453.973 1540.09 449.689 1540.52 447.285C1544.72 438.893 1547.52 425.868 1548.39 420.405C1554.16 381.592 1554.73 334.738 1554.29 316.162C1553.24 285.741 1527.19 269.831 1514.3 265.679C1502.76 262.008 1494.63 263.275 1492.01 264.368C1487.81 266.99 1495.5 288.626 1499.87 299.116C1503.55 308.032 1491.79 308.076 1485.45 306.983C1477.58 305.934 1480.86 310.043 1483.48 312.228C1494.5 324.291 1496.82 329.056 1496.6 329.93C1499.22 336.748 1477.58 376.916 1466.44 396.147C1463.82 399.819 1476.71 304.142 1483.48 255.845C1485.06 246.404 1500.31 261.09 1507.74 269.613C1509.84 272.235 1509.05 285.566 1508.4 291.904C1506.82 301.869 1512.11 333.645 1514.95 348.287C1517.05 353.532 1515.83 382.379 1514.95 396.147C1520.72 404.539 1530.91 406.2 1535.28 405.981C1534.23 396.54 1516.48 395.929 1507.74 396.803L1421.2 409.259V390.902C1421.2 375.167 1403.28 343.698 1394.32 329.93C1388.03 321.013 1393.01 306.546 1396.29 300.427L1405.47 281.414C1407.04 275.644 1400 283.381 1396.29 287.97C1386.85 301.082 1394.54 309.606 1399.57 312.228C1419.5 322.193 1425.79 329.93 1426.45 332.552C1428.02 340.944 1422.73 345.664 1419.89 346.976C1414.64 349.598 1420.33 368.611 1423.82 377.79L1432.08 399.396M1432.35 400.081L1432.08 399.396M1432.08 399.396C1436.49 410.434 1440.21 398.333 1441.52 390.902C1444.67 362.579 1429.29 313.102 1421.2 291.904C1418.05 283.512 1423.39 284.911 1426.45 286.659L1444.8 300.427C1454.24 307.77 1463.6 302.175 1467.09 298.46C1474.44 291.117 1474.96 252.567 1474.31 234.209C1473.78 226.342 1467.53 245.792 1464.47 256.5C1457.13 280.103 1450.05 285.566 1447.43 285.348C1433.79 285.872 1415.52 272.454 1408.09 265.679C1382.39 237.356 1389.95 200.117 1396.94 185.038C1400.61 176.646 1405.9 183.727 1408.09 188.316C1419.63 207.722 1488.51 244.481 1521.51 260.434C1529.9 263.581 1527.63 258.686 1525.44 255.845C1502.89 225.424 1488.07 189.846 1483.48 175.859C1479.29 162.222 1459.01 150.946 1449.39 147.012C1433.66 141.243 1416.17 144.608 1409.4 147.012C1394.19 152.782 1390.82 168.648 1391.04 175.859C1382.13 175.859 1379.02 186.349 1378.59 191.594C1376.49 225.686 1395.63 250.818 1405.47 259.123C1408.61 261.221 1402.41 265.242 1398.91 266.99C1394.19 270.137 1392.57 270.05 1392.35 269.613C1389.21 265.417 1372.25 308.076 1364.16 329.93C1361.54 199.855 1333.35 138.926 1319.58 124.721C1304.89 106.888 1293.36 133.026 1289.42 148.323C1286.27 161.96 1304.72 213.885 1314.33 238.143C1318.53 245.486 1325.7 242.514 1328.76 240.11C1332.43 236.963 1330.29 237.487 1328.76 238.143C1313.02 245.486 1324.39 302.394 1332.04 329.93L1280.9 335.175C1280.9 240.241 1274.34 212.574 1271.06 210.607M1271.06 210.607L1284.83 137.833L1276.31 127.999L1289.42 112.264L1271.06 93.2514C1307.25 104.79 1310.62 116.854 1307.78 121.443C1303.58 130.359 1295.1 134.774 1291.39 135.867C1288.24 135.867 1276.53 185.694 1271.06 210.607ZM1271.06 210.607C1260.57 192.774 1260.14 123.628 1261.23 91.2846C1260.18 150.028 1253.8 162.091 1250.74 160.78L1236.32 153.568C1228.97 149.372 1227.57 160.999 1227.79 167.336C1224.12 168.91 1223.64 167.118 1223.86 166.025C1223.86 159.731 1215.34 159.469 1215.34 166.681L1221.89 259.123C1222.42 268.564 1230.85 273.984 1235.01 275.513C1240.25 277.087 1242.87 269.613 1243.53 265.679C1246.15 254.14 1231.95 197.932 1224.52 171.27C1223.99 168.648 1217.74 168.866 1214.68 169.303C1210.49 169.828 1210.75 163.84 1211.4 160.78C1212.45 156.06 1204.85 161.436 1200.91 164.714C1195.67 168.385 1191.3 139.582 1189.77 124.721C1188.72 113.182 1206.81 134.774 1215.99 147.012C1219.14 150.159 1222.11 148.323 1223.2 147.012C1251 123.41 1258.83 108.768 1259.26 104.397C1265.03 87.6131 1262.98 62.8744 1261.23 52.6031C1256.51 41.5887 1231.29 35.7755 1219.27 34.2458C1205.63 32.6723 1199.16 27.9081 1197.63 25.7227C1200.26 36.7371 1196.54 41.6761 1194.36 42.7688C1178.62 50.6362 1176.87 62.2188 1177.97 67.0267C1168.53 49.7184 1169.66 33.5901 1171.41 27.6896C1174.56 10.3812 1182.34 6.92831 1185.83 7.36539C1192.65 8.93886 1195.67 11.5176 1196.32 12.6103C1197.37 14.7083 1193.05 14.5772 1193.7 11.9547C1196.85 0.940314 1215.99 1.24627 1225.17 2.77605C1244.58 6.97199 1255.98 22.4446 1259.26 29.6564C1265.22 42.7688 1262.1 60.9075 1261.23 72.2716C1258.61 92.7269 1249.65 112.264 1245.49 119.476C1234.48 134.162 1216.43 133.463 1208.78 131.277C1193.8 123.934 1183.74 97.6222 1180.59 85.384C1180.38 82.8884 1180.01 80.4719 1179.54 78.1722M1179.54 78.1722C1177.63 68.8719 1173.99 61.4822 1172.07 58.5036C1169.44 54.8321 1168.79 60.9075 1168.79 64.4042C1168.79 75.943 1173.16 81.8873 1175.34 83.4171C1179.82 86.0396 1180.01 81.0132 1179.54 78.1722ZM1179.54 78.1722C1178.28 85.5151 1189.77 175.204 1208.12 209.296L1164.85 140.456L1177.97 132.588L1163.54 127.999L1177.97 93.2514L1153.71 112.264C1145.84 116.985 1151.3 136.959 1155.02 146.356C1159.22 157.895 1190.86 193.998 1206.16 210.607C1210.35 215.852 1216.21 244.262 1218.61 257.812C1220.19 266.728 1208.34 263.275 1202.22 260.434C1194.36 256.763 1190.64 260.216 1189.77 262.401C1187.67 266.072 1198.51 266.99 1204.19 266.99C1209.96 266.99 1206.59 275.295 1204.19 279.447L1173.38 320.751C1167.61 327.045 1168.79 319.44 1170.1 314.85C1180.06 288.626 1173.38 233.554 1160.92 207.985C1158.3 202.74 1156.33 214.541 1155.68 221.097C1155.68 236.832 1142.56 270.268 1149.12 288.626C1151.22 293.346 1157.86 247.322 1160.92 223.719C1166.69 200.642 1162.45 189.627 1159.61 187.005C1147.55 171.27 1142.78 136.741 1141.91 121.443C1141.91 112.002 1136.66 117.072 1134.04 120.787C1118.3 144.914 1110.87 212.137 1109.13 242.732C1108.08 256.894 1099.51 262.619 1095.36 263.712C1073.33 272.104 1059.08 267.209 1054.71 263.712C1044.22 256.894 1041.16 243.825 1040.94 238.143C1040.94 229.751 1046.19 238.143 1048.81 243.388C1055.63 255.451 1070.01 261.09 1076.35 262.401C1086.84 264.499 1093.39 260.216 1095.36 257.812C1102.18 249.42 1103.88 235.084 1103.88 228.964C1105.27 205.899 1104.72 186.552 1104.12 177.171M1104.12 177.171C1104.04 175.886 1103.96 174.788 1103.88 173.892C1097.06 161.305 1083.56 155.098 1077.66 153.568C1062.97 149.897 1026.52 171.27 1021.27 206.018V219.786C1021.27 224.506 1025.21 227.872 1027.17 228.964C1033.47 231.587 1030.23 226.56 1027.83 223.719C1024.68 218.999 1025.21 213.448 1025.86 211.263C1026.91 207.067 1034.17 212.574 1037.66 215.852C1042.38 189.103 1051.87 183.727 1056.02 184.382C1073.85 185.956 1088.15 170.614 1082.25 164.058L1104.12 177.171ZM1104.12 177.171C1103.93 159.338 1092.74 143.078 1061.92 144.39C1033.07 144.914 1019.74 160.78 1016.68 168.648C1013.43 174.343 1009.7 178.303 1005.44 179.793M1005.44 179.793C1004.21 180.224 1002.93 180.449 1001.6 180.449C991.639 180.449 984.559 160.124 1007.51 140.456C1016.42 129.966 1028.27 141.767 1033.07 148.979C1021.93 154.88 1006.19 166.681 1008.16 173.237C1008.16 178.482 1006.35 179.793 1005.44 179.793ZM1005.44 179.793C1003.57 191.594 1001.6 226.342 1026.52 238.143C1033.34 241.815 1030.67 249.726 1028.49 253.222C1018.52 266.335 998.108 267.427 989.148 266.335C1004.88 257.418 1022.8 253.878 1029.8 253.222C1033.47 294.657 1086.18 324.685 1095.36 268.957C1096.41 262.663 1101.91 281.195 1104.54 291.248C1106.64 299.116 1100.6 301.082 1097.33 301.082C1091.56 301.082 1094.48 305.016 1096.67 306.983C1104.01 311.179 1103.66 315.288 1102.57 316.817L1069.79 403.359C1067.17 409.128 1064.76 405.763 1063.89 403.359L1010.13 327.307C1005.54 320.751 1011.88 308.95 1016.68 305.672C1022.45 300.951 1019.09 298.46 1016.68 297.804C1004.1 294.133 1005.54 291.904 1008.82 284.692L1023.9 254.534C1027.57 305.934 1044.22 360.744 1062.58 394.18C1065.2 398.901 1065.2 398.77 1066.51 394.18C1083.82 327.045 1090.77 286.659 1087.49 260.434L1116.34 265.679C1119.49 273.546 1115.03 282.944 1112.4 286.659C1109.78 274.595 1113.93 266.335 1116.34 263.712C1146.23 293.608 1163.54 322.718 1163.54 338.453C1162.49 352.614 1154.8 350.472 1151.09 347.631C1146.37 342.386 1181.03 321.407 1198.95 311.572C1216.25 299.509 1215.99 288.626 1210.75 294.526C1210.75 305.541 1224.73 315.725 1231.73 319.44C1235.92 321.538 1233.69 327.307 1231.73 324.685C1227.01 320.489 1245.06 308.076 1254.67 302.394C1264.11 296.1 1269.97 277.48 1271.72 268.957C1272.77 257.943 1262.54 265.679 1257.3 270.924C1244.18 288.757 1239.16 287.096 1238.28 284.036C1236.71 278.791 1237.63 273.984 1238.28 272.235C1239.86 265.417 1234.57 268.52 1231.73 270.924C1217.04 285.085 1203.75 302.175 1198.95 308.95C1222.02 326.783 1224.52 331.241 1219.27 337.141C1186.23 380.15 1169.44 394.836 1155.68 394.18C1136.79 393.131 1114.37 350.254 1114.37 311.572C1114.37 303.18 1121.58 303.705 1120.27 311.572C1120.27 350.909 1111.53 383.035 1107.16 394.18C1100.87 407.293 1111.97 421.498 1118.31 426.961C1134.04 439.025 1139.94 437.451 1198.95 432.862L1193.05 444.007L1120.27 457.775L1189.77 472.854L1240.91 341.075L1408.09 332.552L1366.78 449.252L1188.46 474.166L1087.49 451.875C1073.33 447.154 1106.94 444.663 1125.52 444.007C1139.15 444.007 1125.52 436.14 1080.28 423.683C1069.26 420.012 1072.63 417.783 1075.69 417.127C1098.24 415.553 1113.5 425.65 1118.31 430.895C1127.95 439.811 1125.38 446.848 1122.89 449.252C1118.17 454.497 1106.94 446.63 1101.91 442.04C1095.1 437.32 1082.9 442.259 1077.66 445.319C1069.79 448.465 1026.74 441.385 1006.19 437.451C996.229 435.353 995.049 439.636 995.704 442.04C1002 447.81 1037.66 449.252 1054.71 449.252C1061 436.14 1061.7 421.061 1061.27 415.16C1015.11 418.832 1007.07 410.571 1008.82 405.981C1000.29 329.93 1010.13 270.924 981.936 272.235C957.81 273.284 956.149 346.976 958.334 383.69C958.334 388.411 898.017 396.584 867.859 400.081C885.167 385.395 883.375 363.803 880.315 354.843C878.218 345.402 875.726 344.353 875.726 354.843V405.981C886.216 400.212 898.454 400.518 903.262 401.392C909.556 405.064 913.315 433.954 914.408 447.941C914.408 455.808 925.553 449.252 925.553 437.451C925.553 397.458 914.408 396.803 886.872 301.082C891.592 306.852 893.209 301.301 893.428 297.804C891.33 274.727 903.918 242.295 910.474 228.964C915.719 213.23 922.275 150.29 861.958 137.833C856.713 136.784 854.965 141.767 854.746 144.39C844.256 131.802 829.833 138.271 823.932 143.078C800.855 163.534 790.714 190.939 788.529 202.084C785.906 213.098 758.37 248.633 738.702 275.513C756.535 263.974 783.721 256.719 795.085 254.534C842.945 241.421 867.859 192.25 865.892 166.681C871.137 175.859 885.56 183.071 893.428 188.972C905.491 196.315 907.633 215.196 907.196 223.719C905.622 244.175 889.057 268.083 880.971 277.48C873.104 286.397 855.402 279.884 847.535 275.513C834.947 268.17 834.422 260.216 835.733 257.156C842.027 257.156 866.329 286.44 877.693 301.082C882.938 307.901 879.878 311.354 877.693 312.228L865.892 320.095L875.726 330.585L839.667 413.193C837.569 418.963 836.608 413.849 836.389 410.571C836.389 388.28 847.535 345.009 854.091 304.361C849.501 324.685 839.667 328.618 824.588 328.618C804.133 327.569 795.085 312.009 793.118 304.361C787.873 287.577 790.933 269.831 793.118 263.057C776.334 270.399 763.834 286.659 759.682 293.871C756.535 302.263 767.549 307.42 773.45 308.95C778.695 309.999 776.072 312.446 774.105 313.539C765.713 316.686 763.615 324.029 763.615 327.307C763.615 341.993 797.708 378.445 818.687 417.127L819.999 400.736C819.999 394.18 801.641 356.154 791.807 320.751C783.94 302.394 786.344 272.891 788.529 260.434L740.669 284.036C728.605 291.904 715.755 319.44 715.1 332.552V350.909C745.258 410.571 764.927 483.344 817.376 476.133C861.434 466.167 897.799 449.252 910.474 442.04C926.733 433.648 950.467 431.988 960.301 432.206V426.961C959.776 435.353 961.612 440.729 966.202 440.074C976.167 438.5 983.029 422.372 985.214 414.504C986.788 408.21 986.307 402.266 985.87 400.081H974.725M974.069 400.081H974.725M974.725 400.081C999.376 402.179 1009.47 399.207 1011.44 397.458C1013.54 391.164 985.652 389.154 971.446 388.935C959.383 387.886 935.825 399.862 925.553 405.981C916.112 411.226 907.633 409.915 904.573 408.604C909.294 401.785 920.964 400.955 926.209 401.392C931.978 406.113 930.798 421.716 929.487 428.928C928.438 433.124 910.255 439.418 901.295 442.04C891.854 444.663 892.117 451.875 893.428 455.153C908.638 454.104 908.944 442.915 907.196 437.451C904.049 415.422 898.891 407.293 896.706 405.981C883.594 405.981 848.19 419.749 821.965 426.961C809.378 431.157 804.482 425.65 803.608 422.372C783.94 378.445 764.569 322.718 740.669 291.904C733.85 285.085 724.715 290.811 721 294.526C704.741 320.751 704.61 346.32 711.822 373.856L745.258 484" stroke="#E5193D" stroke-width="2.5"/>
<path d="M745.254 484L756.754 521.5C764.354 548.3 751.587 555.333 744.254 555.5H458.254C428.654 555.5 421.254 579.5 421.254 591.5L421.254 860.5C421.254 894.9 421.254 903.5 458.254 903.5H641.254C666.854 903.5 673.254 911.5 673.254 930.5V1429C673.254 1461 659.754 1479 626.754 1479H539.754C518.754 1479 509.254 1490.5 509.254 1509.5V1597.5" stroke="#E5193D" stroke-width="2.5"/>
<path d="M509.254 1597V1663C509.254 1679.4 541.754 1680.5 541.754 1663V1646C540.954 1627.6 566.754 1618.5 574.754 1643C576.754 1650.2 571.921 1655.33 569.254 1657C530.254 1687.5 522.754 1704 533.754 1711.5L561.754 1738.5C566.954 1743.7 562.254 1748 558.254 1745C533.854 1723.4 528.754 1712.5 541.754 1692.5C561.754 1672.9 584.754 1656 593.754 1650C614.154 1633.2 608.254 1615 585.254 1611.5C560.054 1607.9 446.754 1609 388.254 1614C364.254 1616.4 369.254 1633.67 374.754 1642C407.154 1679.2 422.754 1700.5 416.254 1714C409.054 1726.8 400.254 1732.33 396.754 1733.5C393.254 1734.67 390.754 1745 402.254 1740.5C415.854 1731.7 417.254 1715.5 416.254 1708.5C414.654 1694.1 393.587 1680.5 383.254 1675.5C353.254 1661.5 348.754 1636.67 350.254 1626C350.254 1610.4 376.254 1591.5 395.754 1625C414.554 1655.4 421.587 1692 422.754 1706.5C425.154 1733.7 443.087 1743.83 451.754 1745.5C480.154 1753.9 496.921 1757.67 501.754 1758.5C516.754 1761.09 517.254 1768.5 501.754 1771C472.554 1776.2 455.254 1774.17 450.254 1772.5C431.254 1768 436.254 1757 451.754 1758.5C467.354 1760.9 467.921 1808.5 466.254 1832C464.654 1846 459.921 1855.83 457.754 1859C452.154 1867.8 456.421 1874.67 459.254 1877C464.854 1882.2 496.921 1883.5 512.254 1883.5C533.054 1885.1 541.254 1899 512.254 1898H437.754C412.954 1898 400.254 1909.5 400.254 1917.5C400.254 1926.3 439.587 1927.17 459.254 1926.5L538.254 1925.5C557.854 1926.3 565.087 1940.17 566.254 1947C568.254 1959.4 567.087 1971.83 566.254 1976.5C563.854 1985.7 549.254 1985.5 539.754 1985.5H348.254" stroke="#E5193D" stroke-width="2.5"/>
<path d="M348.754 1985.5H333.254C285.254 1985.5 287.254 2039.5 333.254 2039.5H622.754C649.154 2039.5 667.254 2047.5 667.254 2074.5V2734C667.254 2761.5 673.754 2780.5 709.754 2780.5H1273.75C1312.25 2780.5 1327.75 2797 1327.75 2836.5V3471C1327.75 3521.8 1308.25 3531.5 1270.25 3531.5H462.254" stroke="#E5193D" stroke-width="2.5"/>
<path d="M176 3522L75.9999 3522C15.9999 3522 1.49993 3549 1.49993 3583L1.49993 4368.5C1.49993 4413.7 13.9999 4432.5 53.4999 4432.5L581.5 4432.5" stroke="#E5193D" stroke-width="2.5"/>
</svg>
